#N canvas 0 25 1440 847 12;
#X obj 89 852 output~;
#X obj 89 626 +~;
#X obj 89 653 +~;
#X obj 87 210 mtof;
#X obj 90 180 hsl 162 19 0 127 0 0 empty empty frequency 50 10 0 12 #fcfcfc #000000 #000000 0 1;
#X obj 208 558 hsl 162 19 0 20 0 0 empty empty resonance 50 10 0 12 #fcfcfc #000000 #000000 0 1;
#X obj 419 355 text get formants.txt;
#X obj 624 347 text define -k formants.txt;
#A set "ee" 270 2300 3000 \; "oo" 300 870 2250 \; "i" 400 2000 2550 \; "e" 530 1850 2500 \; "u" 640 1200 2400 \; "a" 660 1700 2400 \; "f" 1550 2650 3850 \; "v" 1370 2340 3480 \;;
#X obj 419 408 unpack s f f f;
#X obj 87 354 phasor~;
#X obj 89 595 vcf~;
#X obj 136 595 vcf~;
#X obj 181 593 vcf~;
#X obj 165 355 noise~;
#X obj 87 427 *~;
#X obj 165 426 *~;
#X obj 86 468 +~;
#X floatatom 247 329 5 0 0 0 - - - 0;
#X obj 404 157 bng 19 250 50 0 empty empty empty 0 -10 0 12 #fcfcfc #000000 #000000;
#X obj 247 389 == 0;
#X obj 404 209 metro 250;
#X floatatom 404 183 5 0 0 0 - - - 0;
#X obj 89 818 *~;
#X obj 134 791 line~;
#X msg 134 760 1 50;
#X obj 183 733 delay 50;
#X obj 134 704 t b b;
#X obj 134 675 receive trigger;
#X msg 183 759 0 200;
#X floatatom 453 183 5 0 0 0 - - - 0;
#X obj 453 156 bng 19 250 50 0 empty empty empty 0 -10 0 12 #fcfcfc #000000 #000000;
#X obj 404 236 random 7;
#X obj 247 356 <= 5;
#X obj 404 266 t i i b;
#X obj 505 297 s trigger;
#X floatatom 454 479 5 0 0 0 - - - 0;
#X msg 419 479;
#X floatatom 499 480 5 0 0 0 - - - 0;
#X floatatom 544 480 5 0 0 0 - - - 0;
#X connect 1 0 2 0;
#X connect 2 0 22 0;
#X connect 3 0 9 0;
#X connect 4 0 3 0;
#X connect 5 0 10 2;
#X connect 5 0 11 2;
#X connect 5 0 12 2;
#X connect 6 0 8 0;
#X connect 8 0 36 0;
#X connect 8 1 10 1;
#X connect 8 1 35 0;
#X connect 8 2 11 1;
#X connect 8 2 37 0;
#X connect 8 3 12 1;
#X connect 8 3 38 0;
#X connect 9 0 14 0;
#X connect 10 0 1 0;
#X connect 11 0 1 1;
#X connect 12 0 2 1;
#X connect 13 0 15 0;
#X connect 14 0 16 0;
#X connect 15 0 16 1;
#X connect 16 0 10 0;
#X connect 16 0 11 0;
#X connect 16 0 12 0;
#X connect 17 0 32 0;
#X connect 18 0 21 0;
#X connect 19 0 15 1;
#X connect 20 0 31 0;
#X connect 21 0 20 0;
#X connect 22 0 0 0;
#X connect 23 0 22 1;
#X connect 24 0 23 0;
#X connect 25 0 28 0;
#X connect 26 0 24 0;
#X connect 26 1 25 0;
#X connect 27 0 26 0;
#X connect 28 0 23 0;
#X connect 29 0 20 0;
#X connect 30 0 29 0;
#X connect 31 0 33 0;
#X connect 32 0 14 1;
#X connect 32 0 19 0;
#X connect 33 0 17 0;
#X connect 33 1 6 0;
#X connect 33 2 34 0;
