#N canvas -7 0 1278 988 12;
#X obj 22 47 bng 19 250 50 0 empty empty empty 0 -10 0 12 #fcfcfc #000000 #000000;
#X obj 22 109 send hello;
#X obj 114 80 receive hello;
#X obj 114 109 print;
#X msg 22 81 helloWorld;
#X text 21 25 Object Creation Test:;
#X text 21 149 Sound Test:;
#X obj 23 584 bob~;
#X obj 18 641 output~;
#X obj 24 224 hsl 162 19 0 127 0 0 empty empty frequency 50 10 0 12 #fcfcfc #000000 #000000 0 1;
#X obj 21 252 mtof;
#X obj 70 464 hsl 162 19 0 127 0 0 empty empty cutoff 50 10 0 12 #fcfcfc #000000 #000000 0 1;
#X obj 68 584 hsl 162 19 0.08 8 1 0 empty empty resonance 50 10 0 12 #fcfcfc #000000 #000000 0 1;
#X obj 21 396 phasor~;
#X obj 66 491 mtof;
#X obj 86 396 phasor~;
#X obj 86 310 +;
#X obj 21 425 +~;
#X obj 132 264 hsl 162 19 0 10 0 0 empty empty detune 50 10 0 12 #fcfcfc #000000 #000000 0 1;
#X obj 21 199 bang;
#X obj 205 307 s detune;
#X obj 21 173 r detune;
#X obj 66 543 line;
#X obj 66 516 pack;
#X obj 149 395 phasor~;
#X obj 22 463 +~;
#X obj 167 332 * 2;
#X obj 149 361 +;
#X obj 275 52 netreceive -u -b 7001;
#X obj 275 131 print oscIn;
#X obj 275 79 oscparse;
#X text 273 25 OSC:;
#X obj 275 105 list trim;
#X connect 0 0 4 0;
#X connect 2 0 3 0;
#X connect 4 0 1 0;
#X connect 7 0 8 0;
#X connect 9 0 10 0;
#X connect 10 0 13 0;
#X connect 10 0 16 0;
#X connect 10 0 27 0;
#X connect 11 0 14 0;
#X connect 12 0 7 2;
#X connect 13 0 17 0;
#X connect 14 0 23 0;
#X connect 15 0 17 1;
#X connect 16 0 15 0;
#X connect 17 0 25 0;
#X connect 18 0 16 1;
#X connect 18 0 20 0;
#X connect 18 0 26 0;
#X connect 19 0 9 0;
#X connect 21 0 19 0;
#X connect 22 0 7 1;
#X connect 23 0 22 0;
#X connect 24 0 25 1;
#X connect 25 0 7 0;
#X connect 26 0 27 1;
#X connect 27 0 24 0;
#X connect 28 0 30 0;
#X connect 30 0 32 0;
#X connect 32 0 29 0;
